<?xml version="1.0" encoding="UTF-8"?>
<svg width="184px" height="50px" viewBox="0 0 184 50" version="1.1" xmlns="http://www.w3.org/2000/svg" xmlns:xlink="http://www.w3.org/1999/xlink">
    <!-- Generator: Sketch 50.2 (55047) - http://www.bohemiancoding.com/sketch -->
    <title>Illustration</title>
    <desc>Created with Sketch.</desc>
    <defs></defs>
    <g id="First-GitHub-Deployment" stroke="none" stroke-width="1" fill="none" fill-rule="evenodd">
        <g transform="translate(-628.000000, -368.000000)" id="Illustration">
            <g transform="translate(628.000000, 368.000000)">
                <path d="M157.49756,0 C142.865987,0 131,11.4760513 131,25.633467 C131,36.9584555 138.592345,46.5651047 149.122717,49.954576 C150.448571,50.1906116 150.931735,49.3991056 150.931735,48.719323 C150.931735,48.1103512 150.90896,46.4990147 150.895945,44.3605321 C143.524847,45.9089257 141.969612,40.9238537 141.969612,40.9238537 C140.764143,37.9623936 139.026704,37.1740347 139.026704,37.1740347 C136.620645,35.5847282 139.208908,35.6161996 139.208908,35.6161996 C141.86875,35.7971603 143.267811,38.2582249 143.267811,38.2582249 C145.631572,42.1748424 149.470855,41.0434451 150.98054,40.3872661 C151.221308,38.7318697 151.906197,37.6020459 152.662666,36.9616026 C146.778477,36.314865 140.5917,34.1150132 140.5917,24.2927848 C140.5917,21.494976 141.624728,19.2054306 143.319869,17.4147071 C143.046564,16.766396 142.137174,14.1589893 143.580159,10.6310438 C143.580159,10.6310438 145.804015,9.9418198 150.866663,13.2589069 C152.979895,12.6892743 155.247675,12.4060315 157.500813,12.3950166 C159.752325,12.4060315 162.018478,12.6892743 164.134964,13.2589069 C169.194358,9.9418198 171.414961,10.6310438 171.414961,10.6310438 C172.861199,14.1589893 171.951809,16.766396 171.680131,17.4147071 C173.378526,19.2054306 174.403419,21.494976 174.403419,24.2927848 C174.403419,34.1401903 168.206882,36.3069972 162.304798,36.9411462 C163.254857,37.7326523 164.102428,39.2967816 164.102428,41.6870355 C164.102428,45.1142725 164.069892,47.8790363 164.069892,48.719323 C164.069892,49.4053999 164.548175,50.2032002 165.891924,49.9530025 C176.414162,46.5556633 184,36.9553083 184,25.633467 C184,11.4760513 172.134013,0 157.49756,0" id="GitHub" fill="#000000"></path>
                <path d="M114,25 L60,25" id="Line" stroke="#979797" stroke-linecap="square" stroke-dasharray="3,3"></path>
                <circle id="Oval" fill="#000000" cx="25" cy="25" r="25"></circle>
                <circle id="Oval" stroke="#000000" stroke-width="0.625" fill="#FFFFFF" cx="88" cy="25" r="10"></circle>
                <g id="Now" transform="translate(14.000000, 13.500000)" stroke="#FFFFFF">
                    <polygon id="Shape" stroke-width="1.25" points="11 0 22 20 0 20"></polygon>
                    <path d="M20.8717949,19.4285714 L10.7179487,0.571428571" id="Shape" stroke-width="1.11111111"></path>
                    <path d="M21.4358974,19.4285714 L11.2820513,0.571428571" id="Shape" stroke-width="1.11111111"></path>
                    <path d="M20.3076923,19.4285714 L10.7179487,1.14285714" id="Shape" stroke-width="1.11111111"></path>
                    <path d="M20.3076923,19.4285714 L10.7179487,1.71428571" id="Shape" stroke-width="1.11111111"></path>
                    <path d="M10.1538462,1.71428571 L20.3076923,19.4285714" id="Shape" stroke-width="1.11111111"></path>
                    <path d="M19.7435897,20 L10.1538462,2.28571429" id="Shape" stroke-width="1.11111111"></path>
                </g>
                <polyline id="Checkmark" stroke="#000000" stroke-width="2" points="84 24.9849409 86.9155276 27.7651365 92.6806641 22"></polyline>
            </g>
        </g>
    </g>
</svg>